<?xml version="1.0" standalone="no"?>
<!DOCTYPE svg PUBLIC "-//W3C//DTD SVG 20010904//EN"
 "http://www.w3.org/TR/2001/REC-SVG-20010904/DTD/svg10.dtd">
<svg version="1.0" xmlns="http://www.w3.org/2000/svg"
 width="372.000000pt" height="373.000000pt" viewBox="0 0 372.000000 373.000000"
 preserveAspectRatio="xMidYMid meet">

<g transform="translate(0.000000,373.000000) scale(0.100000,-0.100000)"
fill="#000000" stroke="none">
<path d="M1630 3719 c-99 -11 -301 -59 -398 -95 -88 -33 -302 -135 -302 -144
0 -4 60 -10 133 -13 190 -7 371 -61 655 -198 l144 -68 161 73 c315 143 461
185 672 195 l130 6 -115 57 c-132 66 -346 140 -488 169 -114 23 -454 34 -592
18z"/>
<path d="M565 3191 c-107 -64 -304 -350 -405 -585 -64 -149 -95 -258 -126
-436 -37 -221 -40 -327 -15 -509 47 -334 137 -581 300 -830 63 -95 80 -110 60
-51 -27 77 7 290 77 478 132 356 513 983 837 1376 32 38 57 72 57 76 0 13
-261 240 -364 317 -103 77 -202 132 -295 164 -68 24 -88 24 -126 0z"/>
<path d="M3030 3186 c-151 -53 -299 -157 -542 -379 -54 -49 -98 -93 -98 -98 0
-5 38 -57 85 -116 383 -482 771 -1158 854 -1488 28 -111 40 -230 31 -295 -4
-30 -6 -56 -5 -58 5 -6 51 60 103 149 134 224 226 483 253 713 18 151 6 516
-20 635 -73 330 -243 660 -446 869 -103 105 -108 107 -215 68z"/>
<path d="M1775 2157 c-175 -138 -486 -443 -677 -663 -328 -379 -530 -747 -503
-918 15 -91 60 -139 240 -260 459 -307 1039 -391 1584 -229 286 84 689 337
717 448 10 40 -2 164 -21 220 -51 150 -200 395 -368 606 -224 281 -815 859
-877 859 -8 0 -51 -28 -95 -63z"/>
</g>
</svg>
